<?xml version="1.0" encoding="utf-8"?>
<svg xmlns="http://www.w3.org/2000/svg" viewBox="0 0 45 75" fill="blue" width="45px" height="80px" xmlns:bx="https://boxy-svg.com">

  <path d="M 37.692 49.306 C 27.541 80.123 17.389 80.123 7.238 49.306 C -2.913 18.489 2.162 3.081 22.465 3.081 C 42.768 3.081 47.843 18.489 37.692 49.306 Z M 22.465 9.329 C 15.907 9.329 10.591 14.285 10.591 20.398 C 10.591 26.511 15.907 31.466 22.465 31.466 C 29.023 31.466 34.339 26.511 34.339 20.398 C 34.339 14.285 29.023 9.329 22.465 9.329 Z" style="fill: rgb(216, 216, 216); stroke: rgb(84, 84, 84); stroke-width: 4px;"/>
  <path d="M 10.881 44.478 L 10.881 35.22 L 14.015 35.22 C 14.654 35.22 15.167 35.313 15.552 35.5 C 15.938 35.688 16.24 35.977 16.459 36.366 C 16.677 36.756 16.786 37.163 16.786 37.588 C 16.786 37.984 16.689 38.356 16.496 38.706 C 16.301 39.055 16.009 39.338 15.618 39.552 C 16.123 39.716 16.511 39.996 16.783 40.392 C 17.055 40.788 17.191 41.255 17.191 41.794 C 17.191 42.228 17.108 42.631 16.942 43.003 C 16.778 43.376 16.574 43.663 16.33 43.866 C 16.086 44.067 15.781 44.22 15.415 44.323 C 15.049 44.427 14.599 44.478 14.067 44.478 L 10.881 44.478 Z M 11.986 39.11 L 13.793 39.11 C 14.284 39.11 14.635 39.074 14.848 39.002 C 15.129 38.91 15.341 38.756 15.484 38.541 C 15.627 38.327 15.698 38.058 15.698 37.733 C 15.698 37.426 15.631 37.156 15.498 36.922 C 15.365 36.688 15.175 36.529 14.928 36.442 C 14.68 36.356 14.257 36.312 13.656 36.312 L 11.986 36.312 L 11.986 39.11 Z M 11.986 43.385 L 14.067 43.385 C 14.425 43.385 14.675 43.371 14.82 43.341 C 15.074 43.291 15.287 43.207 15.458 43.089 C 15.629 42.97 15.77 42.799 15.88 42.574 C 15.99 42.349 16.046 42.088 16.046 41.794 C 16.046 41.449 15.965 41.149 15.805 40.894 C 15.646 40.639 15.425 40.461 15.142 40.357 C 14.858 40.254 14.451 40.202 13.919 40.202 L 11.986 40.202 L 11.986 43.385 Z M 18.729 44.478 L 18.729 35.22 L 22.434 35.22 C 23.179 35.22 23.745 35.303 24.133 35.469 C 24.521 35.636 24.83 35.929 25.062 36.35 C 25.294 36.771 25.409 37.236 25.409 37.746 C 25.409 38.403 25.218 38.956 24.834 39.406 C 24.45 39.857 23.857 40.143 23.056 40.266 C 23.348 40.421 23.57 40.576 23.722 40.726 C 24.045 41.055 24.351 41.466 24.64 41.959 L 26.094 44.478 L 24.703 44.478 L 23.598 42.551 C 23.274 41.996 23.008 41.571 22.799 41.276 C 22.59 40.981 22.403 40.775 22.238 40.658 C 22.073 40.539 21.904 40.457 21.733 40.411 C 21.608 40.381 21.403 40.367 21.117 40.367 L 19.835 40.367 L 19.835 44.478 L 18.729 44.478 Z M 19.835 39.306 L 22.212 39.306 C 22.718 39.306 23.113 39.248 23.397 39.133 C 23.683 39.016 23.899 38.832 24.048 38.577 C 24.196 38.322 24.27 38.045 24.27 37.746 C 24.27 37.308 24.126 36.948 23.839 36.666 C 23.552 36.384 23.099 36.243 22.48 36.243 L 19.835 36.243 L 19.835 39.306 Z M 27.141 44.478 L 27.141 35.22 L 30.02 35.22 C 30.67 35.22 31.166 35.264 31.508 35.352 C 31.987 35.475 32.395 35.696 32.733 36.015 C 33.174 36.429 33.503 36.956 33.722 37.598 C 33.94 38.24 34.05 38.973 34.05 39.798 C 34.05 40.502 33.976 41.125 33.827 41.668 C 33.679 42.211 33.49 42.661 33.258 43.016 C 33.025 43.371 32.772 43.652 32.497 43.856 C 32.221 44.06 31.888 44.215 31.499 44.32 C 31.109 44.426 30.663 44.478 30.157 44.478 L 27.141 44.478 Z M 28.247 43.385 L 30.031 43.385 C 30.582 43.385 31.014 43.329 31.328 43.215 C 31.641 43.102 31.892 42.941 32.078 42.735 C 32.34 42.445 32.544 42.054 32.69 41.564 C 32.837 41.073 32.91 40.479 32.91 39.779 C 32.91 38.811 32.766 38.067 32.479 37.547 C 32.192 37.027 31.844 36.679 31.433 36.501 C 31.137 36.375 30.66 36.312 30.003 36.312 L 28.247 36.312 L 28.247 43.385 Z" style="fill: rgb(66, 66, 66); paint-order: stroke; stroke: rgb(66, 66, 66); text-wrap-mode: nowrap; stroke-width: 0px;"/>
</svg>