<?xml version="1.0" encoding="utf-8"?>
<svg xmlns="http://www.w3.org/2000/svg" viewBox="0 0 45 100" fill="blue" width="45px" height="100px" xmlns:bx="https://boxy-svg.com">
  <defs>
    <bx:export>
      <bx:file format="svg"/>
    </bx:export>
  </defs>
  <path d="M 32.496 20.217 C 32.496 25.746 28.014 30.228 22.485 30.228 C 16.956 30.228 12.474 25.746 12.474 20.217 C 12.474 14.688 16.956 10.206 22.485 10.206 C 28.014 10.206 32.496 14.688 32.496 20.217 Z M 37.783 65.886 C 37.794 65.853 37.802 65.819 37.811 65.784 C 42.558 45.136 43.794 29.374 41.417 18.881 C 40.209 13.551 37.935 9.275 34.818 6.542 C 31.695 3.804 27.428 2.364 22.533 2.364 C 17.641 2.364 13.372 3.803 10.241 6.54 C 7.116 9.272 4.827 13.545 3.6 18.876 C 1.184 29.368 2.36 45.129 7.029 65.778 C 9.368 76.098 11.742 83.952 14.119 89.178 C 15.324 91.826 16.614 93.95 17.877 95.335 C 19.199 96.786 20.878 97.698 22.357 97.698 C 25.184 97.698 28.173 94.523 30.624 89.183 C 33.014 83.975 35.411 76.157 37.783 65.886 Z" style="stroke: rgb(113, 113, 113); stroke-width: 3px; fill: rgb(199, 199, 199);"/>
  <path d="M 8.356 45.942 L 8.356 34.65 L 12.179 34.65 C 12.958 34.65 13.583 34.764 14.053 34.992 C 14.524 35.221 14.892 35.573 15.159 36.048 C 15.425 36.523 15.558 37.02 15.558 37.538 C 15.558 38.021 15.44 38.475 15.204 38.902 C 14.967 39.328 14.61 39.672 14.133 39.934 C 14.749 40.134 15.223 40.475 15.555 40.958 C 15.886 41.441 16.052 42.011 16.052 42.668 C 16.052 43.197 15.951 43.689 15.749 44.143 C 15.548 44.598 15.299 44.948 15.002 45.195 C 14.705 45.441 14.333 45.627 13.886 45.753 C 13.439 45.879 12.891 45.942 12.242 45.942 L 8.356 45.942 Z M 9.704 39.395 L 11.908 39.395 C 12.506 39.395 12.935 39.351 13.194 39.263 C 13.537 39.151 13.796 38.963 13.97 38.701 C 14.144 38.439 14.231 38.111 14.231 37.715 C 14.231 37.34 14.149 37.011 13.987 36.726 C 13.825 36.441 13.593 36.246 13.292 36.14 C 12.99 36.035 12.474 35.982 11.741 35.982 L 9.704 35.982 L 9.704 39.395 Z M 9.704 44.609 L 12.242 44.609 C 12.678 44.609 12.984 44.591 13.16 44.555 C 13.47 44.494 13.73 44.391 13.938 44.247 C 14.147 44.103 14.319 43.894 14.453 43.62 C 14.587 43.345 14.655 43.027 14.655 42.668 C 14.655 42.247 14.557 41.881 14.362 41.57 C 14.168 41.26 13.898 41.042 13.553 40.916 C 13.207 40.79 12.71 40.727 12.061 40.727 L 9.704 40.727 L 9.704 44.609 Z M 17.928 45.942 L 17.928 34.65 L 22.447 34.65 C 23.356 34.65 24.046 34.751 24.519 34.954 C 24.992 35.157 25.369 35.515 25.652 36.028 C 25.935 36.542 26.076 37.109 26.076 37.731 C 26.076 38.532 25.842 39.207 25.374 39.756 C 24.906 40.306 24.183 40.655 23.205 40.804 C 23.562 40.994 23.833 41.182 24.018 41.366 C 24.412 41.767 24.785 42.268 25.138 42.869 L 26.911 45.942 L 25.214 45.942 L 23.866 43.592 C 23.472 42.915 23.147 42.396 22.892 42.036 C 22.637 41.677 22.409 41.425 22.208 41.282 C 22.006 41.138 21.801 41.038 21.592 40.981 C 21.439 40.945 21.189 40.928 20.841 40.928 L 19.277 40.928 L 19.277 45.942 L 17.928 45.942 Z M 19.277 39.634 L 22.176 39.634 C 22.793 39.634 23.275 39.563 23.622 39.422 C 23.97 39.28 24.234 39.055 24.415 38.744 C 24.596 38.433 24.686 38.095 24.686 37.731 C 24.686 37.197 24.511 36.758 24.161 36.414 C 23.811 36.07 23.258 35.898 22.503 35.898 L 19.277 35.898 L 19.277 39.634 Z M 28.188 45.942 L 28.188 34.65 L 31.699 34.65 C 32.492 34.65 33.097 34.704 33.514 34.811 C 34.098 34.961 34.596 35.23 35.008 35.62 C 35.546 36.124 35.948 36.767 36.215 37.55 C 36.481 38.333 36.614 39.227 36.614 40.234 C 36.614 41.092 36.524 41.852 36.343 42.514 C 36.162 43.177 35.931 43.725 35.648 44.159 C 35.365 44.592 35.056 44.934 34.72 45.183 C 34.384 45.432 33.978 45.621 33.503 45.749 C 33.028 45.878 32.483 45.942 31.866 45.942 L 28.188 45.942 Z M 29.537 44.609 L 31.713 44.609 C 32.385 44.609 32.912 44.54 33.295 44.401 C 33.677 44.263 33.982 44.067 34.209 43.816 C 34.529 43.462 34.778 42.985 34.956 42.387 C 35.135 41.789 35.224 41.064 35.224 40.211 C 35.224 39.03 35.049 38.122 34.699 37.488 C 34.349 36.854 33.924 36.429 33.423 36.213 C 33.062 36.059 32.48 35.982 31.678 35.982 L 29.537 35.982 L 29.537 44.609 Z" style="fill: rgb(66, 66, 66); paint-order: stroke; stroke: rgb(66, 66, 66); text-wrap-mode: nowrap; stroke-width: 0px;"/>
</svg>